<svg width="634" height="595" viewBox="0 0 634 595" fill="none" xmlns="http://www.w3.org/2000/svg">
<path d="M627.5 296.5C627.5 457.189 489.854 587.5 320 587.5C150.146 587.5 12.5 457.189 12.5 296.5C12.5 135.811 150.146 5.5 320 5.5C489.854 5.5 627.5 135.811 627.5 296.5Z" stroke="black"/>
<path d="M633.5 303.5C633.5 464.189 495.854 594.5 326 594.5C156.146 594.5 18.5 464.189 18.5 303.5C18.5 142.811 156.146 12.5 326 12.5C495.854 12.5 633.5 142.811 633.5 303.5Z" stroke="black"/>
<path d="M615.5 303.5C615.5 464.189 477.854 594.5 308 594.5C138.146 594.5 0.5 464.189 0.5 303.5C0.5 142.811 138.146 12.5 308 12.5C477.854 12.5 615.5 142.811 615.5 303.5Z" stroke="black"/>
<path d="M627.5 291.5C627.5 452.189 489.854 582.5 320 582.5C150.146 582.5 12.5 452.189 12.5 291.5C12.5 130.811 150.146 0.5 320 0.5C489.854 0.5 627.5 130.811 627.5 291.5Z" stroke="black"/>
<path d="M620.5 303.5C620.5 464.189 482.854 594.5 313 594.5C143.146 594.5 5.5 464.189 5.5 303.5C5.5 142.811 143.146 12.5 313 12.5C482.854 12.5 620.5 142.811 620.5 303.5Z" stroke="black"/>
<path d="M615.5 291.5C615.5 452.189 477.854 582.5 308 582.5C138.146 582.5 0.5 452.189 0.5 291.5C0.5 130.811 138.146 0.5 308 0.5C477.854 0.5 615.5 130.811 615.5 291.5Z" stroke="black"/>
<path d="M219.866 178.63C210.186 174.12 202.816 171.92 196.656 171.92C186.756 171.92 181.146 175.66 181.146 182.37C181.146 185.12 181.916 187.21 183.456 188.42C185.216 189.96 188.736 191.17 194.016 192.16L200.286 193.37H200.176C216.676 196.56 224.376 204.37 224.376 218.01C224.376 234.07 213.706 242.54 193.136 242.54C185.766 242.54 176.856 240.67 167.066 237.04V215.81C177.186 221.53 185.766 224.5 193.136 224.5C198.636 224.5 202.706 223.4 205.676 221.31C208.316 219.44 209.526 217.79 209.526 216.14C209.526 214.71 208.536 213.17 206.776 211.41C204.796 209.76 200.946 208.22 196.436 207.23L190.166 206.02C173.996 202.94 166.736 195.9 166.736 183.25C166.736 168.4 177.956 159.38 195.446 159.38C202.816 159.38 210.956 160.92 219.866 163.89V178.63ZM240.427 173.57V160.81H308.957V173.68L282.007 172.58L283.987 241H265.397L267.377 172.58L240.427 173.57ZM324.968 241V160.81H377.218V173.57H339.378V192.05H375.568V204.7H339.378V221.09H378.098V241H324.968ZM394.148 241L397.448 160.81H416.038L433.748 199.64L452.338 160.81H470.048L473.238 241H454.318L456.078 185.89L441.338 228.9H426.048L411.308 185.78C411.528 195.02 411.858 204.26 412.188 213.5C412.408 222.85 412.738 231.98 413.068 241H394.148Z" fill="black"/>
<path d="M80.1247 356L81.4747 290.39H92.8147L93.6247 356H80.1247ZM151.486 356H137.266L138.976 326.39C138.976 318.83 136.816 315.05 131.236 315.05C122.956 315.05 119.266 319.82 119.266 327.92L120.616 356H106.756L108.106 306.41H118.906V310.28C120.166 309.47 121.426 308.75 122.776 307.94C125.476 306.5 128.536 305.69 132.046 305.69C143.566 305.69 149.506 313.16 150.226 326.57L151.486 356ZM204.365 319.55C198.785 316.49 193.835 314.96 189.785 314.96C180.965 314.96 176.465 321.08 176.375 331.25C176.735 334.58 177.905 337.19 179.615 338.45C181.595 339.71 185.465 340.61 189.515 340.97H195.995C197.885 340.88 200.585 339.98 204.095 337.91L204.365 353.66C199.235 356 194.285 357.17 188.975 357.17C174.215 357.17 164.675 346.91 164.675 331.43C164.675 315.59 174.125 305.69 189.425 305.69C194.285 305.69 199.235 306.86 204.365 309.11V319.55ZM217.498 356L218.398 288.86H228.838V343.4H233.878V356H217.498ZM247.117 306.77H256.747V329.27C257.197 336.83 259.627 340.79 265.207 340.79C268.807 340.79 271.597 339.71 273.487 337.46C275.467 335.21 276.457 331.79 276.817 327.83L277.267 306.77H289.327L288.427 356H277.537L277.717 352.22C274.297 355.55 270.067 357.17 264.937 357.17C253.237 357.17 247.117 349.97 247.117 336.2V306.77ZM338.488 318.74C332.818 315.95 327.688 314.51 323.008 314.51C316.528 314.51 313.018 316.58 313.018 320.09C313.018 321.53 313.558 322.7 314.638 323.6C315.808 324.5 318.508 325.49 322.198 326.3C322.648 326.39 323.098 326.48 323.548 326.57C323.908 326.75 324.358 326.84 324.718 326.84C330.388 328.01 334.528 329.81 336.958 331.88C339.478 334.13 340.918 337.46 340.918 341.69C340.918 351.32 332.818 357.17 320.308 357.17C315.268 357.17 309.328 356.09 302.488 353.84V338.9C309.418 342.5 315.448 344.3 320.398 344.3C323.368 344.3 325.528 343.94 326.878 343.22C328.228 342.59 329.038 341.51 329.038 340.16C328.318 338.99 327.778 338 327.148 337.28C326.608 336.83 324.268 336.11 320.038 335.21L317.338 334.58H317.428C307.528 332.6 302.848 329 302.848 320.81C302.848 311 309.688 305.69 322.198 305.69C327.958 305.69 333.358 306.59 338.488 308.66V318.74ZM354.17 356L354.62 306.77H364.61L364.97 356H354.17ZM354.08 301.73L354.62 288.86H364.52L365.06 301.73H354.08ZM396.25 356L378.25 306.77H389.77L403 337.82C405.16 332.78 407.32 327.56 409.66 322.25C411.91 316.94 414.16 311.81 416.23 306.77H427.75L409.75 356H396.25ZM441.006 356L441.456 306.77H451.446L451.806 356H441.006ZM440.916 301.73L441.456 288.86H451.356L451.896 301.73H440.916ZM471.116 295.43H482.366L482.006 306.77H492.536V315.95H481.916L481.466 334.31C481.466 337.64 481.826 339.62 482.636 340.34C483.266 341.06 484.976 341.51 487.676 341.51H497.036V356H487.676C475.166 356 470.216 351.68 470.216 339.17L470.666 315.95H465.086V306.77H470.666L471.116 295.43ZM559.854 306.77L539.604 359.24C534.114 371.75 529.614 374.27 522.054 374.27H513.594V361.04H520.524C522.144 361.04 523.404 360.59 524.214 359.96C525.294 359.06 526.464 357.89 527.634 356.27C528.084 355.28 528.624 354.29 529.164 353.39C529.614 352.49 530.064 351.5 530.604 350.51C528.984 347 527.274 343.49 525.564 339.8C522.144 332.42 518.634 324.86 515.214 317.48C513.504 313.79 511.794 310.28 510.174 306.77H521.604L536.814 331.7L548.424 306.77H559.854ZM242.239 471L243.139 405.39H254.839L254.479 454.71H284.899L283.909 471H242.239ZM325.139 447.51H319.919C314.699 447.51 311.369 448.05 309.839 449.13C308.399 450.12 307.769 451.65 307.679 453.9C308.039 455.34 308.759 456.33 309.839 456.69C311.549 457.14 313.709 457.41 316.229 457.41C322.889 457.41 325.139 456.33 325.139 447.6V447.51ZM340.169 471H329.279V467.22C325.769 470.46 321.269 472.17 315.149 472.17C309.929 472.17 305.879 470.73 302.729 467.76C299.579 464.79 298.049 460.83 298.049 455.97C298.049 444.54 305.429 438.69 320.369 438.69H329.279C328.919 433.47 324.869 430.05 317.849 429.51C312.809 429.51 307.409 431.22 301.469 434.37V424.38C307.859 421.95 313.619 420.69 318.749 420.69C333.059 420.69 340.169 428.07 340.169 443.1V471ZM386.183 453C387.803 451.65 388.973 448.77 389.693 444.63C389.513 439.59 388.433 435.81 386.633 433.2C385.013 430.59 382.403 429.33 379.073 429.33C375.653 429.33 372.953 430.77 370.973 433.2C368.993 435.9 367.913 439.86 367.823 444.81C368.903 451.92 372.233 455.43 378.893 455.43C381.953 455.25 384.293 454.35 386.183 453ZM355.223 461.73L354.233 403.86H365.123L364.403 425.37C367.733 422.04 371.783 420.69 377.273 420.69C389.513 420.69 397.703 431.22 397.703 446.43C397.703 461.64 389.513 472.17 377.273 472.17C371.783 472.17 367.553 470.73 364.223 467.31L355.223 461.73Z" fill="black" fill-opacity="0.99"/>
</svg>
